<?xml version="1.0" encoding="UTF-8" standalone="no"?>
<!DOCTYPE svg PUBLIC "-//W3C//DTD SVG 1.1//EN" "http://www.w3.org/Graphics/SVG/1.1/DTD/svg11.dtd">
<svg width="100%" height="100%" viewBox="0 0 792 166" version="1.1" xmlns="http://www.w3.org/2000/svg" xmlns:xlink="http://www.w3.org/1999/xlink" xml:space="preserve" xmlns:serif="http://www.serif.com/" style="fill-rule:evenodd;clip-rule:evenodd;stroke-linejoin:round;stroke-miterlimit:2;">
    <g id="Layer-1" serif:id="Layer 1" transform="matrix(0.999322,0,0,0.99521,-30.2035,-63.4367)">
        <path d="M199.222,140.063C199.222,131.151 198.871,123.463 198.172,116.998C197.472,110.532 196.162,105.463 194.238,101.795C191.787,94.632 186.282,90.089 177.713,88.164C170.894,86.417 157.692,85.542 138.107,85.542L112.926,85.542C93.339,85.542 80.052,86.417 73.058,88.164C64.664,90.089 58.98,94.632 56.008,101.795C52.683,109.482 51.024,122.238 51.024,140.063L51.024,154.482C51.024,172.306 52.683,185.062 56.008,192.75C59.155,199.744 64.927,204.2 73.32,206.119C80.139,207.869 93.339,208.741 112.926,208.741L138.107,208.741C157.516,208.741 170.631,207.869 177.45,206.119C186.019,204.2 191.613,199.744 194.238,192.75C196.162,189.082 197.472,184.016 198.172,177.55C198.871,171.084 199.222,163.394 199.222,154.482L199.222,140.063ZM218.647,183.072C217.596,191.291 215.846,198.109 213.4,203.528C210.775,208.775 207.275,213.278 202.9,217.034C198.525,220.793 193.366,223.546 187.418,225.296L187.418,225.556C182.344,227.13 175.782,228.356 167.735,229.231C159.685,230.106 149.888,230.541 138.344,230.541L112.889,230.541C86.295,230.541 67.836,228.093 57.517,223.197C45.968,218.127 38.183,208.772 34.161,195.134C32.762,190.066 31.755,182.985 31.143,173.891C30.53,164.8 30.224,153.522 30.224,140.06C30.224,129.047 30.705,119.432 31.668,111.213C32.63,102.995 34.333,96.264 36.783,91.017C39.408,85.773 42.861,81.27 47.149,77.511C51.436,73.754 56.727,70.827 63.027,68.727L63.289,68.727C73.086,65.405 89.62,63.742 112.889,63.742L138.344,63.742C163.888,63.742 182.256,66.28 193.453,71.348C199.053,73.798 203.819,77.383 207.756,82.102C211.694,86.823 214.621,92.679 216.547,99.673C217.596,104.57 218.471,111.563 219.172,120.654C219.871,129.748 220.221,141.022 220.221,154.485C220.221,165.326 219.697,174.853 218.647,183.072" style="fill:rgb(54,124,169);fill-rule:nonzero;"/>
        <path d="M628.04,178.716C625.201,178.716 622.288,178.084 619.295,176.818C616.302,175.552 614.343,174.22 613.415,172.823L613.415,124.444C615.168,122.635 617.539,121.006 620.532,119.558C623.525,118.111 626.054,117.387 628.117,117.387C637.659,117.387 644.598,119.817 648.932,124.676C653.265,129.534 655.432,137.211 655.432,147.703C655.432,168.379 646.3,178.716 628.04,178.716M661.122,115.998C654.565,108.66 645.4,104.99 633.628,104.99C625.729,104.99 618.991,107.786 613.415,113.374L613.415,106.556L598.67,106.556L598.67,222.038L613.415,222.038L613.415,184.991C614.551,186.594 617.119,188.013 621.122,189.253C625.122,190.492 628.88,191.112 632.391,191.112C644.885,191.112 654.435,187.12 661.045,179.136C667.655,171.152 670.96,160.856 670.96,148.245C670.96,134.087 667.68,123.338 661.122,115.998M565.284,170.734C561.382,176.317 555.995,179.108 549.124,179.108C534.395,179.108 527.033,168.691 527.033,147.858C527.033,138.242 529.035,130.696 533.039,125.216C537.044,119.736 542.406,116.995 549.124,116.995C563.8,116.995 571.138,127.283 571.138,147.858C571.138,157.526 569.186,165.152 565.284,170.734M549.124,104.99C537.851,104.99 528.764,108.932 521.86,116.812C514.957,124.694 511.505,135.041 511.505,147.858C511.505,161.088 514.813,171.605 521.432,179.407C528.05,187.212 537.282,191.112 549.124,191.112C560.707,191.112 569.859,187.251 576.581,179.524C583.304,171.798 586.666,161.243 586.666,147.858C586.666,134.422 583.381,123.92 576.813,116.347C570.246,108.777 561.017,104.99 549.124,104.99M507.973,106.556L490.748,106.556L459.04,145.082L459.04,72.499L444.295,72.499L444.295,189.546L459.04,189.546L459.04,161.263L471.893,148.013L497.925,189.546L513.845,189.546L481.416,138.094L507.973,106.556ZM399.353,170.679L374.887,106.556L359.881,106.556L382.436,164.252C384.976,170.756 387.049,176.216 388.655,180.63C390.263,185.047 391.067,189.524 391.067,194.067C391.067,198.197 388.865,201.694 384.466,204.561C380.065,207.425 374.785,208.859 368.624,208.859L368.624,222.038C376.165,222.038 382.998,220.282 389.118,216.772C395.239,213.261 399.256,208.871 401.168,203.605L436.347,106.556L421.341,106.556L399.353,170.679ZM322.467,160.839L299.697,106.296L295.783,106.296L273.795,160.839L256.114,106.296L240.325,106.296L269.946,191.112L273.86,191.112L298.066,134.612L322.402,191.112L326.316,191.112L356.067,106.296L341.584,106.296L322.467,160.839Z" style="fill:rgb(54,124,169);fill-rule:nonzero;"/>
        <path d="M92.299,190.703L103.429,185.237L92.299,190.703L97.766,201.833L108.895,196.367L103.429,185.237L92.299,190.703ZM86.833,179.574L97.962,174.107L86.833,179.574L92.299,190.703L103.429,185.237L97.962,174.107L86.833,179.574ZM81.366,168.444L92.496,162.977L81.366,168.444L86.833,179.574L97.962,174.107L92.496,162.977L81.366,168.444ZM75.9,157.314L87.029,151.848L75.9,157.314L81.366,168.444L92.496,162.977L87.029,151.848L75.9,157.314ZM70.433,146.183L81.563,140.718L70.433,146.183L75.9,157.314L87.029,151.848L81.563,140.718L70.433,146.183ZM64.966,135.055L76.096,129.588L64.966,135.055L70.433,146.183L81.563,140.718L76.096,129.588L64.966,135.055ZM120.222,163.174L131.351,157.707L120.222,163.174L125.689,174.304L136.818,168.838L131.351,157.707L120.222,163.174ZM114.756,152.045L125.885,146.578L114.756,152.045L120.222,163.174L131.351,157.707L125.885,146.578L114.756,152.045ZM109.289,140.914L120.419,135.447L109.289,140.914L114.756,152.045L125.885,146.578L120.419,135.447L109.289,140.914ZM103.822,129.785L114.952,124.318L103.822,129.785L109.289,140.914L120.419,135.447L114.952,124.318L103.822,129.785ZM98.356,118.655L109.486,113.188L98.356,118.655L103.822,129.785L114.952,124.318L109.486,113.188L98.356,118.655ZM153.611,146.774L164.742,141.308L153.611,146.774L159.078,157.904L170.208,152.437L164.742,141.308L153.611,146.774ZM148.144,135.644L159.275,130.178L148.144,135.644L153.611,146.774L164.742,141.308L159.275,130.178L148.144,135.644ZM142.678,124.515L153.808,119.048L142.678,124.515L148.144,135.644L159.275,130.178L153.808,119.048L142.678,124.515ZM137.212,113.385L148.341,107.918L137.212,113.385L142.678,124.515L153.808,119.048L148.341,107.918L137.212,113.385ZM131.746,102.255L142.875,96.788L131.746,102.255L137.212,113.385L148.341,107.918L142.875,96.788L131.746,102.255ZM76.096,129.588L87.226,124.121L76.096,129.588L81.563,140.718L92.693,135.251L87.226,124.121L76.096,129.588ZM81.563,140.718L92.693,135.251L81.563,140.718L87.029,151.848L98.159,146.381L92.693,135.251L81.563,140.718ZM87.029,151.848L98.159,146.381L87.029,151.848L92.496,162.977L103.626,157.511L98.159,146.381L87.029,151.848ZM92.496,162.977L103.626,157.511L92.496,162.977L97.962,174.107L109.092,168.64L103.626,157.511L92.496,162.977ZM97.962,174.107L109.092,168.64L97.962,174.107L103.429,185.237L114.559,179.77L109.092,168.64L97.962,174.107ZM103.429,185.237L114.559,179.77L103.429,185.237L108.895,196.367L120.025,190.9L114.559,179.77L103.429,185.237ZM114.559,179.77L125.689,174.304L114.559,179.77L120.025,190.9L131.155,185.433L125.689,174.304L114.559,179.77ZM125.689,174.304L136.818,168.838L125.689,174.304L131.155,185.433L142.285,179.967L136.818,168.838L125.689,174.304ZM109.486,113.188L120.615,107.722L109.486,113.188L114.952,124.318L126.082,118.851L120.615,107.722L109.486,113.188ZM114.952,124.318L126.082,118.851L114.952,124.318L120.419,135.447L131.549,129.981L126.082,118.851L114.952,124.318ZM120.419,135.447L131.549,129.981L120.419,135.447L125.885,146.578L137.015,141.111L131.549,129.981L120.419,135.447ZM125.885,146.578L137.015,141.111L125.885,146.578L131.351,157.707L142.482,152.241L137.015,141.111L125.885,146.578ZM131.351,157.707L142.482,152.241L131.351,157.707L136.818,168.838L147.948,163.371L142.482,152.241L131.351,157.707ZM136.818,168.838L147.948,163.371L136.818,168.838L142.285,179.967L153.415,174.501L147.948,163.371L136.818,168.838ZM147.948,163.371L159.078,157.904L147.948,163.371L153.415,174.501L164.545,169.034L159.078,157.904L147.948,163.371ZM159.078,157.904L170.208,152.437L159.078,157.904L164.545,169.034L175.674,163.567L170.208,152.437L159.078,157.904ZM170.208,152.437L181.338,146.971L170.208,152.437L175.674,163.567L186.804,158.101L181.338,146.971L170.208,152.437ZM164.742,141.308L175.871,135.842L164.742,141.308L170.208,152.437L181.338,146.971L175.871,135.842L164.742,141.308ZM159.275,130.178L170.404,124.711L159.275,130.178L164.742,141.308L175.871,135.842L170.404,124.711L159.275,130.178ZM153.808,119.048L164.937,113.581L153.808,119.048L159.275,130.178L170.404,124.711L164.937,113.581L153.808,119.048ZM148.341,107.918L159.471,102.452L148.341,107.918L153.808,119.048L164.937,113.581L159.471,102.452L148.341,107.918ZM142.875,96.788L154.005,91.322L142.875,96.788L148.341,107.918L159.471,102.452L154.005,91.322L142.875,96.788Z" style="fill:rgb(245,130,54);fill-rule:nonzero;"/>
        <path d="M689.474,167.545C692.62,167.545 695.31,168.684 697.543,170.961C699.776,173.24 700.893,175.983 700.893,179.192C700.893,182.402 699.776,185.159 697.543,187.462C695.31,189.765 692.62,190.918 689.474,190.918C686.327,190.918 683.637,189.765 681.404,187.462C679.17,185.159 678.054,182.402 678.054,179.192C678.054,175.983 679.17,173.24 681.404,170.961C683.637,168.684 686.327,167.545 689.474,167.545" style="fill:rgb(54,124,169);fill-rule:nonzero;"/>
        <path d="M728.924,124.139L728.924,172.592C729.837,173.99 731.766,175.323 734.71,176.591C737.653,177.859 740.521,178.493 743.313,178.493C761.278,178.493 770.262,168.14 770.262,147.433C770.262,136.926 768.131,129.238 763.867,124.372C759.604,119.507 752.778,117.073 743.389,117.073C741.358,117.073 738.87,117.799 735.928,119.247C732.984,120.697 730.649,122.327 728.924,124.139M728.924,184.783L728.924,221.976L714.459,221.976L714.459,106.202L728.924,106.202L728.924,113.035C734.405,107.445 741.028,104.649 748.794,104.649C760.365,104.649 769.373,108.325 775.82,115.675C782.265,123.026 785.488,133.795 785.488,147.977C785.488,160.609 782.239,170.923 775.743,178.92C769.246,186.918 759.858,190.918 747.575,190.918C744.123,190.918 740.432,190.296 736.499,189.054C732.565,187.81 730.039,186.389 728.924,184.783" style="fill:rgb(54,124,169);fill-rule:nonzero;"/>
        <path d="M794.669,165.836L794.669,72.114L809.134,72.114L809.134,163.352C809.134,167.805 810.391,171.311 812.902,173.873C815.415,176.436 818.7,177.717 822.761,177.717L822.761,190.918C804.033,190.918 794.669,182.558 794.669,165.836" style="fill:rgb(54,124,169);fill-rule:nonzero;"/>
    </g>
</svg>